<?xml version="1.0" encoding="utf-8"?>
<svg xmlns="http://www.w3.org/2000/svg" viewBox="7.471 153.682 466.915 87.513" xmlns:bx="https://boxy-svg.com">
  <defs>
    <linearGradient id="gradient-1" bx:pinned="true"/>
  </defs>
  <text style="fill: rgb(155, 211, 174); font-family: Arial, sans-serif; font-size: 54.8px; font-weight: 700; letter-spacing: -6px; paint-order: stroke markers; stroke-linecap: round; stroke-linejoin: bevel; stroke-miterlimit: 17.4; stroke-width: 0.483173px; word-spacing: -2px; white-space: pre; mix-blend-mode: darken;" transform="matrix(2.173192, 0, 0, 1.96611, -179.338577, -224.01857)" x="82.818" y="232.33">MYTHIQO</text>
  <circle cx="471.718" cy="246.265" r="300" style="stroke-width: 1; fill: rgb(155, 211, 174);" transform="matrix(0.127535, 0, 0, 0.121309, 372.3367, 164.096237)"/>
  <path d="M 465.988 198.508 C 465.988 199.72 465.49 200.812 464.51 201.783 C 463.527 202.754 462.392 203.239 461.116 203.239 C 459.075 203.239 457.585 202.33 456.627 200.51 L 452.139 200.328 C 451.18 200.328 449.293 200.728 446.5 201.517 C 443.505 202.305 441.782 202.935 441.336 203.421 C 440.636 204.148 440.061 205.847 439.615 208.514 C 439.233 210.7 439.041 212.3 439.041 213.332 C 439.041 214.969 439.309 216.171 439.856 216.922 C 440.405 217.673 441.514 218.319 443.198 218.827 C 444.881 219.337 445.926 219.628 446.309 219.688 C 446.565 219.688 446.974 219.664 447.56 219.605 L 448.708 219.605 C 449.536 219.605 450.39 219.724 451.284 219.966 C 452.559 220.332 453.107 220.817 452.915 221.423 C 452.023 221.302 450.467 221.484 448.235 221.969 L 450.912 223.243 C 450.912 223.971 449.828 224.334 447.663 224.334 C 447.089 224.334 446.309 224.213 445.315 223.971 C 444.334 223.727 443.669 223.606 443.352 223.606 L 442.114 223.606 C 442.05 224.213 441.858 225.122 441.54 226.335 C 440.456 226.276 439.181 225.669 437.713 224.517 C 436.247 223.363 435.329 222.795 434.946 222.795 C 434.562 222.795 434.015 223.375 433.327 224.517 C 432.625 225.669 432.282 226.458 432.282 226.882 C 431.451 226.458 430.75 225.669 430.176 224.517 C 429.922 223.727 429.64 222.939 429.321 222.15 C 428.683 222.212 427.511 223.485 425.79 225.972 L 425.303 225.972 C 425.178 225.791 424.692 224.517 423.876 222.15 C 421.9 221.544 420.05 221.242 418.329 221.242 C 417.498 221.242 416.225 221.423 414.503 221.788 L 411.823 221.603 C 412.207 221.242 413.317 220.55 415.165 219.518 C 417.333 218.306 418.992 217.698 420.139 217.698 C 420.33 217.698 420.587 217.735 420.905 217.796 C 421.222 217.857 421.479 217.892 421.671 217.892 C 422.117 217.892 422.831 217.662 423.825 217.213 C 424.806 216.764 425.38 216.352 425.547 215.988 C 425.711 215.625 425.79 214.679 425.79 213.175 C 425.79 209.717 424.833 207.144 422.921 205.446 C 421.261 203.93 418.52 202.838 414.693 202.171 C 413.674 205.629 410.804 207.35 406.098 207.35 C 404.567 207.35 403.037 206.478 401.506 204.719 C 399.939 202.922 399.173 201.323 399.173 199.867 C 399.173 197.621 400.156 195.778 402.132 194.322 C 400.537 192.745 399.747 191.145 399.747 189.507 C 399.747 187.99 400.245 186.656 401.228 185.505 C 402.209 184.351 403.508 183.683 405.104 183.502 C 404.977 181.561 405.639 180.226 407.104 179.499 C 406.405 178.832 406.06 177.656 406.06 175.957 C 406.06 173.954 406.761 172.293 408.164 170.959 C 409.567 169.625 411.314 168.957 413.419 168.957 C 415.714 168.957 417.59 169.722 419.056 171.238 C 420.905 165.233 424.883 162.236 431.005 162.236 C 434.193 162.236 436.999 163.449 439.423 165.875 C 440.316 166.785 440.762 167.27 440.762 167.331 C 439.995 167.331 440.38 167.198 441.91 166.919 C 443.44 166.652 444.55 166.507 445.252 166.507 C 447.737 166.507 449.931 167.38 451.844 169.139 C 453.504 170.717 454.652 172.717 455.29 175.145 C 455.735 175.204 456.437 175.387 457.393 175.689 C 458.795 176.357 459.496 177.509 459.496 179.147 C 459.496 179.45 459.242 180.033 458.732 180.869 C 462.811 183.054 464.853 186.085 464.853 189.968 C 464.853 191.059 464.407 192.575 463.514 194.517 C 465.171 195.427 466.001 196.761 466.001 198.521 M 426.619 202.523 L 426.619 201.346 C 426.619 199.951 425.903 198.678 424.463 197.525 C 423.034 196.373 421.581 195.803 420.114 195.803 C 418.329 195.803 416.671 196.19 415.14 196.979 C 418.52 196.797 422.347 198.653 426.605 202.523 M 424.883 191.253 C 423.928 190.223 423.1 189.168 422.396 188.074 C 419.718 188.743 418.38 189.494 418.38 190.344 C 419.144 190.283 420.254 190.417 421.72 190.756 C 423.187 191.097 424.233 191.253 424.883 191.253 M 430.712 188.439 L 430.712 184.435 C 429.182 184.194 428.249 184.073 427.944 184.073 L 427.944 185.431 L 430.712 188.428 M 443.133 185.879 C 442.367 185.575 440.94 184.97 438.836 184.06 L 438.836 191.884 C 441.833 190.246 443.262 188.244 443.133 185.879 M 448.388 196.616 L 446.284 194.166 C 445.009 195.014 443.721 195.876 442.407 196.761 C 441.094 197.635 439.971 198.629 439.014 199.72 C 441.886 198.265 445.009 197.235 448.377 196.628" fill="#00160b" style="stroke-width: 1;"/>
</svg>